<svg xmlns="http://www.w3.org/2000/svg" viewBox="0 0 44 100" width="44" height="100">
  <defs>
    <linearGradient id="glass" x1="0" y1="0" x2="1" y2="0">
      <stop offset="0%" stop-color="#2a1a08"></stop>
      <stop offset="12%" stop-color="#4a3018"></stop>
      <stop offset="30%" stop-color="#6b4820"></stop>
      <stop offset="50%" stop-color="#7a5528"></stop>
      <stop offset="70%" stop-color="#6b4820"></stop>
      <stop offset="88%" stop-color="#4a3018"></stop>
      <stop offset="100%" stop-color="#2a1a08"></stop>
    </linearGradient>
    <linearGradient id="neck" x1="0" y1="0" x2="1" y2="0">
      <stop offset="0%" stop-color="#2a1a08"></stop>
      <stop offset="25%" stop-color="#4a3018"></stop>
      <stop offset="50%" stop-color="#6b4820"></stop>
      <stop offset="75%" stop-color="#4a3018"></stop>
      <stop offset="100%" stop-color="#2a1a08"></stop>
    </linearGradient>
    <linearGradient id="cap" x1="0" y1="0" x2="1" y2="0">
      <stop offset="0%" stop-color="#888"></stop>
      <stop offset="30%" stop-color="#bbb"></stop>
      <stop offset="50%" stop-color="#ddd"></stop>
      <stop offset="70%" stop-color="#bbb"></stop>
      <stop offset="100%" stop-color="#888"></stop>
    </linearGradient>
    <linearGradient id="label" x1="0" y1="0" x2="0" y2="1">
      <stop offset="0%" stop-color="#d4c8a0"></stop>
      <stop offset="50%" stop-color="#e8ddb8"></stop>
      <stop offset="100%" stop-color="#d4c8a0"></stop>
    </linearGradient>
  </defs>
  
  <path d="M7,95 Q7,99 10,99 L34,99 Q37,99 37,95 L37,42 L7,42 Z" fill="url(#glass)" stroke="#1a1008" stroke-width="0.4"></path>
  
  <path d="M7,42 Q7,30 16,25 L16,12 L28,12 L28,25 Q37,30 37,42" fill="url(#glass)" stroke="#1a1008" stroke-width="0.4"></path>
  
  <rect x="16" y="5" width="12" height="8" rx="1" fill="url(#neck)" stroke="#1a1008" stroke-width="0.4"></rect>
  
  <rect x="14.5" y="1" width="15" height="5.5" rx="2" fill="url(#cap)" stroke="#666" stroke-width="0.3"></rect>
  
  <line x1="16" y1="1.5" x2="16" y2="6" stroke="#999" stroke-width="0.4" opacity="0.5"></line>
  <line x1="18.5" y1="1.2" x2="18.5" y2="6.3" stroke="#999" stroke-width="0.4" opacity="0.5"></line>
  <line x1="21" y1="1" x2="21" y2="6.5" stroke="#999" stroke-width="0.4" opacity="0.5"></line>
  <line x1="23.5" y1="1" x2="23.5" y2="6.5" stroke="#999" stroke-width="0.4" opacity="0.5"></line>
  <line x1="26" y1="1.2" x2="26" y2="6.3" stroke="#999" stroke-width="0.4" opacity="0.5"></line>
  <line x1="28.5" y1="1.5" x2="28.5" y2="6" stroke="#999" stroke-width="0.4" opacity="0.5"></line>
  
  <rect x="9" y="52" width="26" height="26" rx="1.5" fill="url(#label)" stroke="#b0a070" stroke-width="0.4"></rect>
  
  <rect x="13" y="57" width="18" height="2" rx="0.5" fill="#8a6020" opacity="0.6"></rect>
  <rect x="15" y="61" width="14" height="1.5" rx="0.5" fill="#8a6020" opacity="0.4"></rect>
  <rect x="13" y="65" width="18" height="1.5" rx="0.5" fill="#8a6020" opacity="0.3"></rect>
  <rect x="16" y="69" width="12" height="1.5" rx="0.5" fill="#8a6020" opacity="0.3"></rect>
  <rect x="14" y="73" width="16" height="1" rx="0.5" fill="#8a6020" opacity="0.2"></rect>
  
  <path d="M10,43 L10,94 L13,94 L13,43 Z" fill="rgba(255,255,255,0.06)"></path>
  <path d="M18,14 L18,24 Q12,28 10,34 L12,34 Q14,28 19,24 L19,14 Z" fill="rgba(255,255,255,0.05)"></path>
  
  <rect x="6" y="97" width="32" height="2.5" rx="1" fill="#3a2510" stroke="#1a1008" stroke-width="0.3"></rect>
</svg>